<svg xmlns="http://www.w3.org/2000/svg" viewBox="0 0 1200 340" width="1200" height="340" role="img" aria-label="wolfmix-automation — the Wolfmix .wpj format, byte by byte">
<title>wolfmix-automation</title>
<defs><linearGradient id="bg" x1="0" y1="0" x2="1" y2="1"><stop offset="0" stop-color="#0a0f1e"/><stop offset="0.55" stop-color="#111a2c"/><stop offset="1" stop-color="#0b1120"/></linearGradient><linearGradient id="hair" x1="0" y1="0" x2="1" y2="0"><stop offset="0" stop-color="#5b6b8c" stop-opacity="0"/><stop offset="0.5" stop-color="#8496bd" stop-opacity="0.6"/><stop offset="1" stop-color="#5b6b8c" stop-opacity="0"/></linearGradient><linearGradient id="strip" x1="0" y1="0" x2="1" y2="0"><stop offset="0" stop-color="#4fc3d4"/><stop offset="0.5" stop-color="#8a97f5"/><stop offset="1" stop-color="#ef7aa8"/></linearGradient><linearGradient id="sheen" x1="0" y1="0" x2="0" y2="1"><stop offset="0" stop-color="#ffffff" stop-opacity="0.22"/><stop offset="1" stop-color="#ffffff" stop-opacity="0"/></linearGradient></defs>
<rect width="1200" height="340" rx="18" fill="url(#bg)"/>
<rect x="1" y="1" width="1198" height="338" rx="17" fill="none" stroke="#27324c" stroke-width="1.5"/>
<rect x="130" y="0.5" width="940" height="1.5" fill="url(#hair)"/>
<text x="88" y="132" font-family="ui-monospace, SFMono-Regular, SF Mono, Menlo, Consolas, monospace" font-size="47" font-weight="700" fill="#eaf0fb" letter-spacing="-1.5">wolfmix-automation</text>
<text x="90" y="176" font-family="ui-sans-serif, -apple-system, Segoe UI, Helvetica, Arial, sans-serif" font-size="21" fill="#96a4c0">The Wolfmix <tspan font-family="ui-monospace, SFMono-Regular, SF Mono, Menlo, Consolas, monospace" fill="#cbd7ec">.wpj</tspan> format, byte by byte.</text>
<text x="90" y="209" font-family="ui-sans-serif, -apple-system, Segoe UI, Helvetica, Arial, sans-serif" font-size="21" fill="#96a4c0">Every claim carries the experiment that proved it.</text>
<rect x="90" y="240" width="196" height="31" rx="15.5" fill="#4fc3d4" fill-opacity="0.12" stroke="#4fc3d4" stroke-opacity="0.4"/>
<text x="188" y="260.5" font-family="ui-monospace, SFMono-Regular, SF Mono, Menlo, Consolas, monospace" font-size="13.5" fill="#4fc3d4" text-anchor="middle">3 container variants</text>
<rect x="299" y="240" width="154" height="31" rx="15.5" fill="#8a97f5" fill-opacity="0.12" stroke="#8a97f5" stroke-opacity="0.4"/>
<text x="376" y="260.5" font-family="ui-monospace, SFMono-Regular, SF Mono, Menlo, Consolas, monospace" font-size="13.5" fill="#8a97f5" text-anchor="middle">20 record types</text>
<rect x="466" y="240" width="146" height="31" rx="15.5" fill="#ef7aa8" fill-opacity="0.12" stroke="#ef7aa8" stroke-opacity="0.4"/>
<text x="539" y="260.5" font-family="ui-monospace, SFMono-Regular, SF Mono, Menlo, Consolas, monospace" font-size="13.5" fill="#ef7aa8" text-anchor="middle">0 dependencies</text>
<g opacity="0.55">
<rect x="90.00" y="304.00" width="2.57" height="18.00" rx="1" fill="url(#strip)"/>
<rect x="94.29" y="296.53" width="2.57" height="25.47" rx="1" fill="url(#strip)"/>
<rect x="98.57" y="298.06" width="2.57" height="23.94" rx="1" fill="url(#strip)"/>
<rect x="102.86" y="294.14" width="2.57" height="27.86" rx="1" fill="url(#strip)"/>
<rect x="107.14" y="298.50" width="2.57" height="23.50" rx="1" fill="url(#strip)"/>
<rect x="111.43" y="306.09" width="2.57" height="15.91" rx="1" fill="url(#strip)"/>
<rect x="115.71" y="304.61" width="2.57" height="17.39" rx="1" fill="url(#strip)"/>
<rect x="120.00" y="308.61" width="2.57" height="13.39" rx="1" fill="url(#strip)"/>
<rect x="124.29" y="305.77" width="2.57" height="16.23" rx="1" fill="url(#strip)"/>
<rect x="128.57" y="296.86" width="2.57" height="25.14" rx="1" fill="url(#strip)"/>
<rect x="132.86" y="296.73" width="2.57" height="25.27" rx="1" fill="url(#strip)"/>
<rect x="137.14" y="291.39" width="2.57" height="30.61" rx="1" fill="url(#strip)"/>
<rect x="141.43" y="291.10" width="2.57" height="30.90" rx="1" fill="url(#strip)"/>
<rect x="145.71" y="299.54" width="2.57" height="22.46" rx="1" fill="url(#strip)"/>
<rect x="150.00" y="300.19" width="2.57" height="21.81" rx="1" fill="url(#strip)"/>
<rect x="154.29" y="305.98" width="2.57" height="16.02" rx="1" fill="url(#strip)"/>
<rect x="158.57" y="309.27" width="2.57" height="12.73" rx="1" fill="url(#strip)"/>
<rect x="162.86" y="302.12" width="2.57" height="19.88" rx="1" fill="url(#strip)"/>
<rect x="167.14" y="301.73" width="2.57" height="20.27" rx="1" fill="url(#strip)"/>
<rect x="171.43" y="296.74" width="2.57" height="25.26" rx="1" fill="url(#strip)"/>
<rect x="175.71" y="291.66" width="2.57" height="30.34" rx="1" fill="url(#strip)"/>
<rect x="180.00" y="298.23" width="2.57" height="23.77" rx="1" fill="url(#strip)"/>
<rect x="184.29" y="299.51" width="2.57" height="22.49" rx="1" fill="url(#strip)"/>
<rect x="188.57" y="304.83" width="2.57" height="17.17" rx="1" fill="url(#strip)"/>
<rect x="192.86" y="313.19" width="2.57" height="8.81" rx="1" fill="url(#strip)"/>
<rect x="197.14" y="309.64" width="2.57" height="12.36" rx="1" fill="url(#strip)"/>
<rect x="201.43" y="309.97" width="2.57" height="12.03" rx="1" fill="url(#strip)"/>
<rect x="205.71" y="307.15" width="2.57" height="14.85" rx="1" fill="url(#strip)"/>
<rect x="210.00" y="298.48" width="2.57" height="23.52" rx="1" fill="url(#strip)"/>
<rect x="214.29" y="301.17" width="2.57" height="20.83" rx="1" fill="url(#strip)"/>
<rect x="218.57" y="301.34" width="2.57" height="20.66" rx="1" fill="url(#strip)"/>
<rect x="222.86" y="303.37" width="2.57" height="18.63" rx="1" fill="url(#strip)"/>
<rect x="227.14" y="313.70" width="2.57" height="8.30" rx="1" fill="url(#strip)"/>
<rect x="231.43" y="313.79" width="2.57" height="8.21" rx="1" fill="url(#strip)"/>
<rect x="235.71" y="314.98" width="2.57" height="7.02" rx="1" fill="url(#strip)"/>
<rect x="240.00" y="315.67" width="2.57" height="6.33" rx="1" fill="url(#strip)"/>
<rect x="244.29" y="305.86" width="2.57" height="16.14" rx="1" fill="url(#strip)"/>
<rect x="248.57" y="304.31" width="2.57" height="17.69" rx="1" fill="url(#strip)"/>
<rect x="252.86" y="302.66" width="2.57" height="19.34" rx="1" fill="url(#strip)"/>
<rect x="257.14" y="299.63" width="2.57" height="22.37" rx="1" fill="url(#strip)"/>
<rect x="261.43" y="308.31" width="2.57" height="13.69" rx="1" fill="url(#strip)"/>
<rect x="265.71" y="310.87" width="2.57" height="11.13" rx="1" fill="url(#strip)"/>
<rect x="270.00" y="312.37" width="2.57" height="9.63" rx="1" fill="url(#strip)"/>
<rect x="274.29" y="316.60" width="2.57" height="5.40" rx="1" fill="url(#strip)"/>
<rect x="278.57" y="309.22" width="2.57" height="12.78" rx="1" fill="url(#strip)"/>
<rect x="282.86" y="304.92" width="2.57" height="17.08" rx="1" fill="url(#strip)"/>
<rect x="287.14" y="302.43" width="2.57" height="19.57" rx="1" fill="url(#strip)"/>
<rect x="291.43" y="294.76" width="2.57" height="27.24" rx="1" fill="url(#strip)"/>
<rect x="295.71" y="299.23" width="2.57" height="22.77" rx="1" fill="url(#strip)"/>
<rect x="300.00" y="302.72" width="2.57" height="19.28" rx="1" fill="url(#strip)"/>
<rect x="304.29" y="303.63" width="2.57" height="18.37" rx="1" fill="url(#strip)"/>
<rect x="308.57" y="311.55" width="2.57" height="10.45" rx="1" fill="url(#strip)"/>
<rect x="312.86" y="308.43" width="2.57" height="13.57" rx="1" fill="url(#strip)"/>
<rect x="317.14" y="303.92" width="2.57" height="18.08" rx="1" fill="url(#strip)"/>
<rect x="321.43" y="302.70" width="2.57" height="19.30" rx="1" fill="url(#strip)"/>
<rect x="325.71" y="292.95" width="2.57" height="29.05" rx="1" fill="url(#strip)"/>
<rect x="330.00" y="292.47" width="2.57" height="29.53" rx="1" fill="url(#strip)"/>
<rect x="334.29" y="295.63" width="2.57" height="26.37" rx="1" fill="url(#strip)"/>
<rect x="338.57" y="294.97" width="2.57" height="27.03" rx="1" fill="url(#strip)"/>
<rect x="342.86" y="304.16" width="2.57" height="17.84" rx="1" fill="url(#strip)"/>
<rect x="347.14" y="306.70" width="2.57" height="15.30" rx="1" fill="url(#strip)"/>
<rect x="351.43" y="304.03" width="2.57" height="17.97" rx="1" fill="url(#strip)"/>
<rect x="355.71" y="305.97" width="2.57" height="16.03" rx="1" fill="url(#strip)"/>
<rect x="360.00" y="297.57" width="2.57" height="24.43" rx="1" fill="url(#strip)"/>
<rect x="364.29" y="293.05" width="2.57" height="28.95" rx="1" fill="url(#strip)"/>
<rect x="368.57" y="295.14" width="2.57" height="26.86" rx="1" fill="url(#strip)"/>
<rect x="372.86" y="292.15" width="2.57" height="29.85" rx="1" fill="url(#strip)"/>
<rect x="377.14" y="299.62" width="2.57" height="22.38" rx="1" fill="url(#strip)"/>
<rect x="381.43" y="306.48" width="2.57" height="15.52" rx="1" fill="url(#strip)"/>
<rect x="385.71" y="306.12" width="2.57" height="15.88" rx="1" fill="url(#strip)"/>
<rect x="390.00" y="311.52" width="2.57" height="10.48" rx="1" fill="url(#strip)"/>
<rect x="394.29" y="307.26" width="2.57" height="14.74" rx="1" fill="url(#strip)"/>
<rect x="398.57" y="300.56" width="2.57" height="21.44" rx="1" fill="url(#strip)"/>
<rect x="402.86" y="301.41" width="2.57" height="20.59" rx="1" fill="url(#strip)"/>
<rect x="407.14" y="296.02" width="2.57" height="25.98" rx="1" fill="url(#strip)"/>
<rect x="411.43" y="298.86" width="2.57" height="23.14" rx="1" fill="url(#strip)"/>
<rect x="415.71" y="307.01" width="2.57" height="14.99" rx="1" fill="url(#strip)"/>
<rect x="420.00" y="307.71" width="2.57" height="14.29" rx="1" fill="url(#strip)"/>
<rect x="424.29" y="314.99" width="2.57" height="7.01" rx="1" fill="url(#strip)"/>
<rect x="428.57" y="316.03" width="2.57" height="5.97" rx="1" fill="url(#strip)"/>
<rect x="432.86" y="309.25" width="2.57" height="12.75" rx="1" fill="url(#strip)"/>
<rect x="437.14" y="309.35" width="2.57" height="12.65" rx="1" fill="url(#strip)"/>
<rect x="441.43" y="302.61" width="2.57" height="19.39" rx="1" fill="url(#strip)"/>
<rect x="445.71" y="299.39" width="2.57" height="22.61" rx="1" fill="url(#strip)"/>
<rect x="450.00" y="305.66" width="2.57" height="16.34" rx="1" fill="url(#strip)"/>
<rect x="454.29" y="305.59" width="2.57" height="16.41" rx="1" fill="url(#strip)"/>
<rect x="458.57" y="312.05" width="2.57" height="9.95" rx="1" fill="url(#strip)"/>
<rect x="462.86" y="316.60" width="2.57" height="5.40" rx="1" fill="url(#strip)"/>
<rect x="467.14" y="312.78" width="2.57" height="9.22" rx="1" fill="url(#strip)"/>
<rect x="471.43" y="313.12" width="2.57" height="8.88" rx="1" fill="url(#strip)"/>
<rect x="475.71" y="307.32" width="2.57" height="14.68" rx="1" fill="url(#strip)"/>
<rect x="480.00" y="299.00" width="2.57" height="23.00" rx="1" fill="url(#strip)"/>
<rect x="484.29" y="301.66" width="2.57" height="20.34" rx="1" fill="url(#strip)"/>
<rect x="488.57" y="299.73" width="2.57" height="22.27" rx="1" fill="url(#strip)"/>
<rect x="492.86" y="302.88" width="2.57" height="19.12" rx="1" fill="url(#strip)"/>
<rect x="497.14" y="311.47" width="2.57" height="10.53" rx="1" fill="url(#strip)"/>
<rect x="501.43" y="309.38" width="2.57" height="12.62" rx="1" fill="url(#strip)"/>
<rect x="505.71" y="310.95" width="2.57" height="11.05" rx="1" fill="url(#strip)"/>
<rect x="510.00" y="308.79" width="2.57" height="13.21" rx="1" fill="url(#strip)"/>
<rect x="514.29" y="298.49" width="2.57" height="23.51" rx="1" fill="url(#strip)"/>
<rect x="518.57" y="297.84" width="2.57" height="24.16" rx="1" fill="url(#strip)"/>
<rect x="522.86" y="294.41" width="2.57" height="27.59" rx="1" fill="url(#strip)"/>
<rect x="527.14" y="292.96" width="2.57" height="29.04" rx="1" fill="url(#strip)"/>
<rect x="531.43" y="301.90" width="2.57" height="20.10" rx="1" fill="url(#strip)"/>
<rect x="535.71" y="302.82" width="2.57" height="19.18" rx="1" fill="url(#strip)"/>
<rect x="540.00" y="305.80" width="2.57" height="16.20" rx="1" fill="url(#strip)"/>
<rect x="544.29" y="309.05" width="2.57" height="12.95" rx="1" fill="url(#strip)"/>
<rect x="548.57" y="300.56" width="2.57" height="21.44" rx="1" fill="url(#strip)"/>
<rect x="552.86" y="298.29" width="2.57" height="23.71" rx="1" fill="url(#strip)"/>
<rect x="557.14" y="294.90" width="2.57" height="27.10" rx="1" fill="url(#strip)"/>
<rect x="561.43" y="289.08" width="2.57" height="32.92" rx="1" fill="url(#strip)"/>
<rect x="565.71" y="295.81" width="2.57" height="26.19" rx="1" fill="url(#strip)"/>
<rect x="570.00" y="298.61" width="2.57" height="23.39" rx="1" fill="url(#strip)"/>
<rect x="574.29" y="301.87" width="2.57" height="20.13" rx="1" fill="url(#strip)"/>
<rect x="578.57" y="310.10" width="2.57" height="11.90" rx="1" fill="url(#strip)"/>
<rect x="582.86" y="306.10" width="2.57" height="15.90" rx="1" fill="url(#strip)"/>
<rect x="587.14" y="304.02" width="2.57" height="17.98" rx="1" fill="url(#strip)"/>
<rect x="591.43" y="302.46" width="2.57" height="19.54" rx="1" fill="url(#strip)"/>
<rect x="595.71" y="293.77" width="2.57" height="28.23" rx="1" fill="url(#strip)"/>
<rect x="600.00" y="296.38" width="2.57" height="25.62" rx="1" fill="url(#strip)"/>
<rect x="604.29" y="299.18" width="2.57" height="22.82" rx="1" fill="url(#strip)"/>
<rect x="608.57" y="300.58" width="2.57" height="21.42" rx="1" fill="url(#strip)"/>
<rect x="612.86" y="311.09" width="2.57" height="10.91" rx="1" fill="url(#strip)"/>
<rect x="617.14" y="312.09" width="2.57" height="9.91" rx="1" fill="url(#strip)"/>
<rect x="621.43" y="311.10" width="2.57" height="10.90" rx="1" fill="url(#strip)"/>
<rect x="625.71" y="312.53" width="2.57" height="9.47" rx="1" fill="url(#strip)"/>
<rect x="630.00" y="303.35" width="2.57" height="18.65" rx="1" fill="url(#strip)"/>
<rect x="634.29" y="301.23" width="2.57" height="20.77" rx="1" fill="url(#strip)"/>
<rect x="638.57" y="302.50" width="2.57" height="19.50" rx="1" fill="url(#strip)"/>
<rect x="642.86" y="300.12" width="2.57" height="21.88" rx="1" fill="url(#strip)"/>
<rect x="647.14" y="309.07" width="2.57" height="12.93" rx="1" fill="url(#strip)"/>
<rect x="651.43" y="313.63" width="2.57" height="8.37" rx="1" fill="url(#strip)"/>
<rect x="655.71" y="313.53" width="2.57" height="8.47" rx="1" fill="url(#strip)"/>
<rect x="660.00" y="316.60" width="2.57" height="5.40" rx="1" fill="url(#strip)"/>
<rect x="664.29" y="311.14" width="2.57" height="10.86" rx="1" fill="url(#strip)"/>
<rect x="668.57" y="305.42" width="2.57" height="16.58" rx="1" fill="url(#strip)"/>
<rect x="672.86" y="304.95" width="2.57" height="17.05" rx="1" fill="url(#strip)"/>
<rect x="677.14" y="298.48" width="2.57" height="23.52" rx="1" fill="url(#strip)"/>
<rect x="681.43" y="302.73" width="2.57" height="19.27" rx="1" fill="url(#strip)"/>
<rect x="685.71" y="308.53" width="2.57" height="13.47" rx="1" fill="url(#strip)"/>
</g>
<text x="708" y="322" font-family="ui-monospace, SFMono-Regular, SF Mono, Menlo, Consolas, monospace" font-size="12" fill="#61708f">DMX 1…512</text>
<text x="900" y="29" font-family="ui-monospace, SFMono-Regular, SF Mono, Menlo, Consolas, monospace" font-size="12" fill="#61708f">20 slots · 4 × 5 · column-major</text>
<rect x="900.0" y="49.0" width="42" height="42" rx="10" fill="#db604f"/>
<rect x="900.0" y="49.0" width="42" height="21.0" rx="10" fill="url(#sheen)"/>
<rect x="900.5" y="49.5" width="41" height="41" rx="9.5" fill="none" stroke="#0a0f1e" stroke-opacity="0.35"/>
<rect x="900.0" y="103.0" width="42" height="42" rx="10" fill="#db8a4f"/>
<rect x="900.0" y="103.0" width="42" height="21.0" rx="10" fill="url(#sheen)"/>
<rect x="900.5" y="103.5" width="41" height="41" rx="9.5" fill="none" stroke="#0a0f1e" stroke-opacity="0.35"/>
<rect x="900.0" y="157.0" width="42" height="42" rx="10" fill="#dbb44f"/>
<rect x="900.0" y="157.0" width="42" height="21.0" rx="10" fill="url(#sheen)"/>
<rect x="900.5" y="157.5" width="41" height="41" rx="9.5" fill="none" stroke="#0a0f1e" stroke-opacity="0.35"/>
<rect x="900.0" y="211.0" width="42" height="42" rx="10" fill="#d8db4f"/>
<rect x="900.0" y="211.0" width="42" height="21.0" rx="10" fill="url(#sheen)"/>
<rect x="900.5" y="211.5" width="41" height="41" rx="9.5" fill="none" stroke="#0a0f1e" stroke-opacity="0.35"/>
<rect x="900.0" y="265.0" width="42" height="42" rx="10" fill="#aedb4f"/>
<rect x="900.0" y="265.0" width="42" height="21.0" rx="10" fill="url(#sheen)"/>
<rect x="900.5" y="265.5" width="41" height="41" rx="9.5" fill="none" stroke="#0a0f1e" stroke-opacity="0.35"/>
<rect x="954.0" y="49.0" width="42" height="42" rx="10" fill="#84db4f"/>
<rect x="954.0" y="49.0" width="42" height="21.0" rx="10" fill="url(#sheen)"/>
<rect x="954.5" y="49.5" width="41" height="41" rx="9.5" fill="none" stroke="#0a0f1e" stroke-opacity="0.35"/>
<rect x="954.0" y="103.0" width="42" height="42" rx="10" fill="#5bdb4f"/>
<rect x="954.0" y="103.0" width="42" height="21.0" rx="10" fill="url(#sheen)"/>
<rect x="954.5" y="103.5" width="41" height="41" rx="9.5" fill="none" stroke="#0a0f1e" stroke-opacity="0.35"/>
<rect x="954.0" y="157.0" width="42" height="42" rx="10" fill="#4fdb6e"/>
<rect x="954.0" y="157.0" width="42" height="21.0" rx="10" fill="url(#sheen)"/>
<rect x="954.5" y="157.5" width="41" height="41" rx="9.5" fill="none" stroke="#0a0f1e" stroke-opacity="0.35"/>
<rect x="954.0" y="211.0" width="42" height="42" rx="10" fill="#4fdb98"/>
<rect x="954.0" y="211.0" width="42" height="21.0" rx="10" fill="url(#sheen)"/>
<rect x="954.5" y="211.5" width="41" height="41" rx="9.5" fill="none" stroke="#0a0f1e" stroke-opacity="0.35"/>
<rect x="954.0" y="265.0" width="42" height="42" rx="10" fill="#4fdbc2"/>
<rect x="954.0" y="265.0" width="42" height="21.0" rx="10" fill="url(#sheen)"/>
<rect x="954.5" y="265.5" width="41" height="41" rx="9.5" fill="none" stroke="#0a0f1e" stroke-opacity="0.35"/>
<rect x="1008.0" y="49.0" width="42" height="42" rx="10" fill="#4fcadb"/>
<rect x="1008.0" y="49.0" width="42" height="21.0" rx="10" fill="url(#sheen)"/>
<rect x="1008.5" y="49.5" width="41" height="41" rx="9.5" fill="none" stroke="#0a0f1e" stroke-opacity="0.35"/>
<rect x="1008.0" y="103.0" width="42" height="42" rx="10" fill="#4fa0db"/>
<rect x="1008.0" y="103.0" width="42" height="21.0" rx="10" fill="url(#sheen)"/>
<rect x="1008.5" y="103.5" width="41" height="41" rx="9.5" fill="none" stroke="#0a0f1e" stroke-opacity="0.35"/>
<rect x="1008.0" y="157.0" width="42" height="42" rx="10" fill="#4f76db"/>
<rect x="1008.0" y="157.0" width="42" height="21.0" rx="10" fill="url(#sheen)"/>
<rect x="1008.5" y="157.5" width="41" height="41" rx="9.5" fill="none" stroke="#0a0f1e" stroke-opacity="0.35"/>
<rect x="1008.0" y="211.0" width="42" height="42" rx="10" fill="#524fdb"/>
<rect x="1008.0" y="211.0" width="42" height="21.0" rx="10" fill="url(#sheen)"/>
<rect x="1008.5" y="211.5" width="41" height="41" rx="9.5" fill="none" stroke="#0a0f1e" stroke-opacity="0.35"/>
<rect x="1008.0" y="265.0" width="42" height="42" rx="10" fill="#7c4fdb"/>
<rect x="1008.0" y="265.0" width="42" height="21.0" rx="10" fill="url(#sheen)"/>
<rect x="1008.5" y="265.5" width="41" height="41" rx="9.5" fill="none" stroke="#0a0f1e" stroke-opacity="0.35"/>
<rect x="1062.0" y="49.0" width="42" height="42" rx="10" fill="#a64fdb"/>
<rect x="1062.0" y="49.0" width="42" height="21.0" rx="10" fill="url(#sheen)"/>
<rect x="1062.5" y="49.5" width="41" height="41" rx="9.5" fill="none" stroke="#0a0f1e" stroke-opacity="0.35"/>
<rect x="1062.0" y="103.0" width="42" height="42" rx="10" fill="#d04fdb"/>
<rect x="1062.0" y="103.0" width="42" height="21.0" rx="10" fill="url(#sheen)"/>
<rect x="1062.5" y="103.5" width="41" height="41" rx="9.5" fill="none" stroke="#0a0f1e" stroke-opacity="0.35"/>
<rect x="1062.0" y="157.0" width="42" height="42" rx="10" fill="#db4fbc"/>
<rect x="1062.0" y="157.0" width="42" height="21.0" rx="10" fill="url(#sheen)"/>
<rect x="1062.5" y="157.5" width="41" height="41" rx="9.5" fill="none" stroke="#0a0f1e" stroke-opacity="0.35"/>
<rect x="1062.0" y="211.0" width="42" height="42" rx="10" fill="#db4f92"/>
<rect x="1062.0" y="211.0" width="42" height="21.0" rx="10" fill="url(#sheen)"/>
<rect x="1062.5" y="211.5" width="41" height="41" rx="9.5" fill="none" stroke="#0a0f1e" stroke-opacity="0.35"/>
<rect x="1062.0" y="265.0" width="42" height="42" rx="10" fill="#db4f68"/>
<rect x="1062.0" y="265.0" width="42" height="21.0" rx="10" fill="url(#sheen)"/>
<rect x="1062.5" y="265.5" width="41" height="41" rx="9.5" fill="none" stroke="#0a0f1e" stroke-opacity="0.35"/>
</svg>
